<?xml version="1.0" encoding="utf-8"?>
<svg xmlns="http://www.w3.org/2000/svg" xmlns:xlink="http://www.w3.org/1999/xlink" style="margin: auto; background: none; display: block; shape-rendering: auto;" width="200px" height="200px" viewBox="0 0 100 100" preserveAspectRatio="xMidYMid">
<g transform="rotate(0 50 50)">
  <rect x="47" y="24" rx="3" ry="6" width="6" height="12" fill="#000000">
    <animate attributeName="opacity" values="1;0" keyTimes="0;1" dur="0.9803921568627451s" begin="-0.9049773755656109s" repeatCount="indefinite"></animate>
  </rect>
</g><g transform="rotate(27.692307692307693 50 50)">
  <rect x="47" y="24" rx="3" ry="6" width="6" height="12" fill="#000000">
    <animate attributeName="opacity" values="1;0" keyTimes="0;1" dur="0.9803921568627451s" begin="-0.8295625942684767s" repeatCount="indefinite"></animate>
  </rect>
</g><g transform="rotate(55.38461538461539 50 50)">
  <rect x="47" y="24" rx="3" ry="6" width="6" height="12" fill="#000000">
    <animate attributeName="opacity" values="1;0" keyTimes="0;1" dur="0.9803921568627451s" begin="-0.7541478129713424s" repeatCount="indefinite"></animate>
  </rect>
</g><g transform="rotate(83.07692307692308 50 50)">
  <rect x="47" y="24" rx="3" ry="6" width="6" height="12" fill="#000000">
    <animate attributeName="opacity" values="1;0" keyTimes="0;1" dur="0.9803921568627451s" begin="-0.6787330316742082s" repeatCount="indefinite"></animate>
  </rect>
</g><g transform="rotate(110.76923076923077 50 50)">
  <rect x="47" y="24" rx="3" ry="6" width="6" height="12" fill="#000000">
    <animate attributeName="opacity" values="1;0" keyTimes="0;1" dur="0.9803921568627451s" begin="-0.6033182503770739s" repeatCount="indefinite"></animate>
  </rect>
</g><g transform="rotate(138.46153846153845 50 50)">
  <rect x="47" y="24" rx="3" ry="6" width="6" height="12" fill="#000000">
    <animate attributeName="opacity" values="1;0" keyTimes="0;1" dur="0.9803921568627451s" begin="-0.5279034690799397s" repeatCount="indefinite"></animate>
  </rect>
</g><g transform="rotate(166.15384615384616 50 50)">
  <rect x="47" y="24" rx="3" ry="6" width="6" height="12" fill="#000000">
    <animate attributeName="opacity" values="1;0" keyTimes="0;1" dur="0.9803921568627451s" begin="-0.45248868778280543s" repeatCount="indefinite"></animate>
  </rect>
</g><g transform="rotate(193.84615384615384 50 50)">
  <rect x="47" y="24" rx="3" ry="6" width="6" height="12" fill="#000000">
    <animate attributeName="opacity" values="1;0" keyTimes="0;1" dur="0.9803921568627451s" begin="-0.3770739064856712s" repeatCount="indefinite"></animate>
  </rect>
</g><g transform="rotate(221.53846153846155 50 50)">
  <rect x="47" y="24" rx="3" ry="6" width="6" height="12" fill="#000000">
    <animate attributeName="opacity" values="1;0" keyTimes="0;1" dur="0.9803921568627451s" begin="-0.30165912518853694s" repeatCount="indefinite"></animate>
  </rect>
</g><g transform="rotate(249.23076923076923 50 50)">
  <rect x="47" y="24" rx="3" ry="6" width="6" height="12" fill="#000000">
    <animate attributeName="opacity" values="1;0" keyTimes="0;1" dur="0.9803921568627451s" begin="-0.22624434389140272s" repeatCount="indefinite"></animate>
  </rect>
</g><g transform="rotate(276.9230769230769 50 50)">
  <rect x="47" y="24" rx="3" ry="6" width="6" height="12" fill="#000000">
    <animate attributeName="opacity" values="1;0" keyTimes="0;1" dur="0.9803921568627451s" begin="-0.15082956259426847s" repeatCount="indefinite"></animate>
  </rect>
</g><g transform="rotate(304.61538461538464 50 50)">
  <rect x="47" y="24" rx="3" ry="6" width="6" height="12" fill="#000000">
    <animate attributeName="opacity" values="1;0" keyTimes="0;1" dur="0.9803921568627451s" begin="-0.07541478129713423s" repeatCount="indefinite"></animate>
  </rect>
</g><g transform="rotate(332.3076923076923 50 50)">
  <rect x="47" y="24" rx="3" ry="6" width="6" height="12" fill="#000000">
    <animate attributeName="opacity" values="1;0" keyTimes="0;1" dur="0.9803921568627451s" begin="0s" repeatCount="indefinite"></animate>
  </rect>
</g>
<!-- [ldio] generated by https://loading.io/ --></svg>